<?xml version="1.0" standalone="no"?>
<!DOCTYPE svg PUBLIC "-//W3C//DTD SVG 20010904//EN"
 "http://www.w3.org/TR/2001/REC-SVG-20010904/DTD/svg10.dtd">
<svg version="1.0" xmlns="http://www.w3.org/2000/svg"
 width="540.000000pt" height="540.000000pt" viewBox="0 0 540.000000 540.000000"
 preserveAspectRatio="xMidYMid meet">

<g transform="translate(0.000000,540.000000) scale(0.100000,-0.100000)"
fill="#000000" stroke="none">
<path d="M0 2700 l0 -2700 2700 0 2700 0 0 2700 0 2700 -2700 0 -2700 0 0
-2700z m3035 2061 c619 -110 1124 -437 1468 -950 150 -222 266 -521 317 -813
28 -157 38 -457 21 -619 -78 -746 -540 -1392 -1236 -1725 -297 -142 -588 -207
-925 -207 -674 1 -1259 276 -1698 798 -215 255 -373 577 -446 907 -40 179 -49
298 -43 537 4 181 10 236 32 341 199 948 952 1634 1925 1754 19 2 132 3 250 1
165 -2 243 -8 335 -24z"/>
<path d="M2360 4651 c-350 -54 -647 -179 -935 -395 -102 -76 -324 -298 -399
-399 -70 -94 -148 -219 -141 -226 3 -2 24 13 48 36 153 146 371 282 543 338
255 83 588 68 795 -35 125 -63 234 -157 296 -256 9 -15 12 87 12 469 l1 487
-52 -1 c-29 0 -105 -9 -168 -18z"/>
<path d="M2845 4612 c127 -65 176 -99 259 -180 113 -109 201 -256 247 -412 19
-66 22 -105 26 -330 l5 -255 -39 -22 c-84 -47 -126 -127 -126 -238 0 -185 160
-326 357 -313 137 10 240 80 299 206 l32 67 3 418 c3 446 -2 508 -49 662 -31
102 -87 153 -260 238 -156 76 -267 117 -434 158 -125 30 -315 59 -388 59 -42
-1 -41 -1 68 -58z"/>
<path d="M2716 3188 c6 -1264 7 -1348 25 -1432 43 -203 155 -355 321 -435 146
-71 215 -85 428 -85 171 -1 192 1 285 27 111 30 271 104 367 168 187 126 389
333 459 471 48 95 86 268 59 268 -13 0 -306 -122 -366 -153 -69 -35 -176 -113
-264 -191 -151 -135 -270 -198 -410 -218 -242 -34 -467 101 -525 316 -23 85
-17 216 15 298 45 119 155 228 281 279 113 45 169 48 772 49 l567 0 0 124 c0
435 -160 883 -437 1226 -64 79 -281 295 -288 288 -3 -3 2 -52 10 -109 21 -152
21 -880 0 -963 -48 -184 -181 -318 -353 -355 -298 -63 -562 131 -562 414 0
113 67 266 136 312 l26 16 -4 226 c-4 216 -6 230 -32 303 -72 202 -219 365
-410 458 -45 22 -88 40 -95 40 -9 0 -10 -295 -5 -1342z"/>
<path d="M1628 3925 c-187 -36 -377 -138 -568 -306 -104 -92 -201 -208 -299
-359 -92 -141 -126 -230 -137 -360 l-7 -81 54 21 c81 32 204 96 273 142 33 23
145 124 247 223 102 100 216 205 254 234 133 100 245 138 380 128 221 -16 366
-155 382 -362 18 -239 -172 -430 -434 -437 -88 -2 -124 34 -93 93 9 16 22 19
74 19 197 0 341 128 340 301 -2 118 -65 205 -183 250 -45 17 -73 20 -141 17
-150 -6 -205 -42 -492 -323 -120 -117 -224 -210 -273 -243 -78 -52 -254 -141
-347 -176 -46 -18 -46 -19 -50 -68 -1 -27 -1 -52 1 -54 2 -2 279 -4 615 -4
679 0 682 -1 807 -66 93 -49 142 -92 142 -127 0 -67 -65 -78 -131 -22 -93 80
-246 120 -365 96 -157 -32 -259 -141 -288 -305 -14 -85 3 -139 62 -190 52 -44
110 -60 206 -54 93 6 128 22 205 94 69 66 108 72 160 25 l33 -29 6 -359 c6
-392 7 -398 73 -533 51 -105 105 -180 187 -262 59 -59 96 -85 161 -117 46 -23
88 -41 92 -41 3 0 5 611 3 1358 -3 1236 -4 1362 -20 1412 -69 228 -230 382
-467 450 -99 29 -347 37 -462 15z"/>
<path d="M615 2388 c41 -448 267 -899 616 -1235 74 -71 97 -87 86 -59 -4 9
-14 53 -24 99 -16 72 -18 139 -18 547 0 464 0 465 24 530 13 36 41 91 62 122
22 32 39 60 39 63 0 3 -178 5 -396 5 l-396 0 7 -72z"/>
<path d="M3540 2419 c-91 -12 -196 -66 -254 -130 -79 -88 -112 -218 -82 -324
31 -105 84 -166 186 -214 49 -23 67 -26 165 -26 106 0 112 1 185 37 44 21 116
71 174 120 54 46 115 95 134 111 l36 27 -113 0 c-135 0 -151 6 -151 60 0 21 6
42 13 47 6 4 111 11 232 14 255 6 263 8 513 130 l142 70 0 44 0 45 -557 -1
c-307 -1 -587 -5 -623 -10z"/>
<path d="M1910 1895 c-13 -14 -51 -39 -85 -56 -137 -67 -272 -61 -427 19 -12
6 -9 -527 3 -594 16 -92 47 -181 97 -277 52 -99 76 -120 237 -200 214 -107
409 -169 636 -202 161 -23 177 -20 100 15 -178 83 -341 254 -442 463 -66 138
-79 199 -80 382 -1 88 -4 231 -8 318 l-6 159 -25 -27z"/>
<path d="M2710 1023 l0 -463 58 0 c126 1 350 40 517 91 398 122 794 399 1035
724 77 105 80 114 15 59 -279 -238 -611 -346 -966 -314 -193 17 -352 74 -485
174 -58 43 -137 127 -162 171 -9 15 -11 -92 -12 -442z"/>
</g>
</svg>
